<svg xmlns="http://www.w3.org/2000/svg" width="24" height="24" viewBox="0 0 24 24" fill="#344563">
    <path d="M8.70484 8.18409C8.87154 8.35079 9.09763 8.44444 9.33338 8.44444H15.5556C15.7914 8.44444 16.0175 8.35079 16.1842 8.18409C16.3509 8.01739 16.4445 7.79129 16.4445 7.55555C16.4445 7.3198 16.3509 7.09371 16.1842 6.92701C16.0175 6.76031 15.7914 6.66666 15.5556 6.66666H9.33338C9.09763 6.66666 8.87154 6.76031 8.70484 6.92701C8.53814 7.09371 8.44449 7.3198 8.44449 7.55555C8.44449 7.79129 8.53814 8.01739 8.70484 8.18409Z" fill="#344563" fill-opacity="0.85"></path>
    <path fill-rule="evenodd" clip-rule="evenodd" d="M6.66667 2.22217C5.20445 2.22217 4 3.42661 4 4.88884V19.1111C4 20.5733 5.20445 21.7778 6.66667 21.7778H19.1111C19.3469 21.7778 19.573 21.6841 19.7397 21.5174C19.9064 21.3507 20 21.1246 20 20.8889C20 20.6531 19.9064 20.427 19.7397 20.2603C19.573 20.0936 19.3469 20 19.1111 20H6.66667C6.16356 20 5.77778 19.6142 5.77778 19.1111C5.77778 18.608 6.16356 18.2222 6.66667 18.2222H19.1111C19.3469 18.2222 19.573 18.1285 19.7397 17.9618C19.9064 17.7951 20 17.5691 20 17.3333V3.11106C20 2.87531 19.9064 2.64922 19.7397 2.48252C19.573 2.31582 19.3469 2.22217 19.1111 2.22217H6.66667ZM6.66667 3.99995H18.2222V16.4444H6.66667C6.36293 16.4482 6.06216 16.5048 5.77778 16.6115V4.88884C5.77778 4.38573 6.16356 3.99995 6.66667 3.99995Z" fill="#344563" fill-opacity="0.85"></path>
</svg>
